<svg width="661" height="417" viewBox="0 0 661 417" fill="none" xmlns="http://www.w3.org/2000/svg">
<path d="M96.0195 6.78212L95.8472 11.7791L96.0195 6.78212ZM202.13 19.5154L201.255 24.4382L202.13 19.5154ZM361.061 63.6104L358.752 68.0454L361.061 63.6104ZM399.614 110.771L404.553 109.991L399.614 110.771ZM398.553 147.792L396.484 143.24L398.553 147.792ZM356.345 130.814L359.511 126.944L356.345 130.814ZM546.165 185.402L542.151 188.383L546.165 185.402ZM594.505 269.819L599.121 267.899L599.121 267.899L594.505 269.819ZM623.036 351.642L627.554 349.499L623.036 351.642ZM650.154 416.252L660.607 359.471L606.207 378.809L650.154 416.252ZM9.96139 11.5288C9.80922 12.7462 9.08305 13.2681 9.14684 13.2203C9.21683 13.1679 9.60803 12.9229 10.5626 12.604C12.4437 11.9755 15.381 11.423 19.2917 10.9984C27.0309 10.1581 37.4691 9.92756 48.2811 10.0186C69.9425 10.2011 92.0368 11.6478 95.8472 11.7791L96.1918 1.78509C92.9265 1.67249 70.1335 0.202324 48.3653 0.0189769C37.4625 -0.0728542 26.5505 0.151478 18.2123 1.05681C14.0844 1.505 10.3013 2.14796 7.39386 3.11932C5.95418 3.6003 4.43407 4.25629 3.15242 5.21614C1.86457 6.18063 0.346413 7.82605 0.0386106 10.2885L9.96139 11.5288ZM95.8472 11.7791C130.649 12.9792 166.743 18.3028 201.255 24.4382L203.005 14.5926C168.35 8.43163 131.706 3.0097 96.1918 1.78509L95.8472 11.7791ZM201.255 24.4382C253.887 33.795 312.164 43.794 358.752 68.0454L363.369 59.1753C315.15 34.0749 255.21 23.8734 203.005 14.5926L201.255 24.4382ZM358.752 68.0454C366.636 72.1492 375.009 78.6696 381.748 86.4609C388.513 94.2835 393.331 103.037 394.676 111.551L404.553 109.991C402.822 99.0291 396.824 88.6062 389.311 79.9195C381.772 71.2015 372.406 63.8795 363.369 59.1753L358.752 68.0454ZM394.676 111.551C395.313 115.588 397.08 123.189 397.729 130.874C398.049 134.662 398.038 137.98 397.576 140.422C397.347 141.628 397.048 142.4 396.786 142.849C396.663 143.059 396.569 143.163 396.525 143.206C396.503 143.227 396.49 143.236 396.487 143.238C396.485 143.239 396.484 143.24 396.484 143.24C396.485 143.24 396.485 143.24 396.484 143.24L400.622 152.343C405.054 150.329 406.727 145.844 407.401 142.281C408.114 138.514 408.04 134.136 407.694 130.032C407.009 121.936 405.024 112.973 404.553 109.991L394.676 111.551ZM396.484 143.24C391.489 145.51 385.305 144.26 378.21 140.446C371.233 136.694 364.68 131.174 359.511 126.944L353.178 134.684C358.101 138.711 365.465 144.947 373.475 149.253C381.368 153.497 391.242 156.607 400.622 152.343L396.484 143.24ZM359.511 126.944C356.839 124.758 356.293 123.463 356.216 123.127C356.199 123.053 356.215 123.102 356.196 123.158C356.192 123.168 356.253 122.984 356.607 122.63C357.389 121.849 358.969 120.86 361.589 119.842C364.123 118.858 367.25 117.989 370.753 117.238C384.873 114.213 403.005 113.531 406.57 113.531V103.531C402.664 103.531 383.749 104.226 368.658 107.46C364.857 108.275 361.171 109.276 357.967 110.521C354.847 111.733 351.762 113.334 349.538 115.557C347.139 117.955 345.544 121.347 346.471 125.372C347.29 128.925 349.884 131.988 353.178 134.684L359.511 126.944ZM406.57 113.531C457.245 113.531 511.983 147.757 542.151 188.383L550.179 182.421C518.636 139.943 461.179 103.531 406.57 103.531V113.531ZM542.151 188.383C561.778 214.815 577.292 241.455 589.888 271.739L599.121 267.899C586.184 236.795 570.249 209.449 550.179 182.421L542.151 188.383ZM589.888 271.739C595.256 284.645 599.275 298.424 603.55 312.488C607.791 326.437 612.274 340.626 618.519 353.786L627.554 349.499C621.663 337.087 617.366 323.554 613.118 309.579C608.904 295.719 604.725 281.372 599.121 267.899L589.888 271.739ZM618.519 353.786C621.907 360.923 626.485 368.687 630.712 376.281L639.45 371.418C635.033 363.483 630.756 356.246 627.554 349.499L618.519 353.786Z" fill="#ED7D31"/>
</svg>
