<svg width="1395" height="696" viewBox="0 0 1395 696" fill="none" xmlns="http://www.w3.org/2000/svg">
<path d="M1207.72 145.781C1194.41 123.82 1191.11 87.4809 1204.41 64.9817C1215.08 46.929 1231.26 33.9293 1251.8 28.9074C1270.57 24.3208 1285.85 21.379 1301.5 34.2449C1312.58 43.359 1318.15 54.9001 1325.52 66.8222C1328.88 72.2656 1333.67 76.5545 1337.11 81.9146C1344.82 93.9262 1347.11 109.468 1350.92 122.958C1366.61 178.624 1379.26 242.004 1357.91 298.177C1347.79 324.804 1331.99 348.359 1313.19 369.589C1300.01 384.463 1281.79 405.276 1261.1 409.528C1242.73 413.303 1222.05 410.817 1203.4 410.817C1189.93 410.817 1173.52 411.901 1162.45 402.534C1155.99 397.074 1154.72 387.636 1154.72 379.712C1154.72 375.541 1154.68 359.13 1159.96 357.81C1176.58 353.654 1192.27 355.878 1197.32 375.847C1203.83 401.545 1196.32 432.635 1191.8 457.934C1186.97 484.949 1184.82 518.941 1171.65 543.703C1157 571.232 1131.52 594.83 1103.37 608.121C1087.71 615.509 1070.46 619.534 1053.85 624.042C1029.59 630.63 1005.2 637.77 980.418 642.171C918.08 653.242 853.128 649.349 790.107 649.349C732.596 649.349 675.157 649.772 617.742 645.944C524.776 639.746 432.189 636.306 339.086 632.969C287.364 631.115 235.89 633.903 184.482 639.778C159.008 642.69 133.353 645.959 108.376 651.926C100.951 653.7 81.8815 658.859 88.3141 662.969C101.88 671.636 127.631 671.809 142.978 669.779C149.171 668.96 158.853 667.615 163.592 662.877C170.271 656.198 160.207 643.931 156.414 638.674C144.085 621.587 127.913 609.561 108.008 602.508C80.5822 592.79 52.2371 587.194 25 576.464" stroke="#ED7D31" stroke-width="10" stroke-linecap="round"/>
<g filter="url(#filter0_f_50_4)">
<path d="M1207.72 145.781C1194.41 123.82 1191.11 87.4809 1204.41 64.9817C1215.08 46.929 1231.26 33.9293 1251.8 28.9074C1270.57 24.3208 1285.85 21.379 1301.5 34.2449C1312.58 43.359 1318.15 54.9001 1325.52 66.8222C1328.88 72.2656 1333.67 76.5545 1337.11 81.9146C1344.82 93.9262 1347.11 109.468 1350.92 122.958C1366.61 178.624 1379.26 242.004 1357.91 298.177C1347.79 324.804 1331.99 348.359 1313.19 369.589C1300.01 384.463 1281.79 405.276 1261.1 409.528C1242.73 413.303 1222.05 410.817 1203.4 410.817C1189.93 410.817 1173.52 411.901 1162.45 402.534C1155.99 397.074 1154.72 387.636 1154.72 379.712C1154.72 375.541 1154.68 359.13 1159.96 357.81C1176.58 353.654 1192.27 355.878 1197.32 375.847C1203.83 401.545 1196.32 432.635 1191.8 457.934C1186.97 484.949 1184.82 518.941 1171.65 543.703C1157 571.232 1131.52 594.83 1103.37 608.121C1087.71 615.509 1070.46 619.534 1053.85 624.042C1029.59 630.63 1005.2 637.77 980.418 642.171C918.08 653.242 853.128 649.349 790.107 649.349C732.596 649.349 675.157 649.772 617.742 645.944C524.776 639.746 432.189 636.306 339.086 632.969C287.364 631.115 235.89 633.903 184.482 639.778C159.008 642.69 133.353 645.959 108.376 651.926C100.951 653.7 81.8815 658.859 88.3141 662.969C101.88 671.636 127.631 671.809 142.978 669.779C149.171 668.96 158.853 667.615 163.592 662.877C170.271 656.198 160.207 643.931 156.414 638.674C144.085 621.587 127.913 609.561 108.008 602.508C80.5822 592.79 52.2371 587.194 25 576.464" stroke="#ED7D31" stroke-width="10" stroke-linecap="round"/>
<path d="M1207.72 145.781C1194.41 123.82 1191.11 87.4809 1204.41 64.9817C1215.08 46.929 1231.26 33.9293 1251.8 28.9074C1270.57 24.3208 1285.85 21.379 1301.5 34.2449C1312.58 43.359 1318.15 54.9001 1325.52 66.8222C1328.88 72.2656 1333.67 76.5545 1337.11 81.9146C1344.82 93.9262 1347.11 109.468 1350.92 122.958C1366.61 178.624 1379.26 242.004 1357.91 298.177C1347.79 324.804 1331.99 348.359 1313.19 369.589C1300.01 384.463 1281.79 405.276 1261.1 409.528C1242.73 413.303 1222.05 410.817 1203.4 410.817C1189.93 410.817 1173.52 411.901 1162.45 402.534C1155.99 397.074 1154.72 387.636 1154.72 379.712C1154.72 375.541 1154.68 359.13 1159.96 357.81C1176.58 353.654 1192.27 355.878 1197.32 375.847C1203.83 401.545 1196.32 432.635 1191.8 457.934C1186.97 484.949 1184.82 518.941 1171.65 543.703C1157 571.232 1131.52 594.83 1103.37 608.121C1087.71 615.509 1070.46 619.534 1053.85 624.042C1029.59 630.63 1005.2 637.77 980.418 642.171C918.08 653.242 853.128 649.349 790.107 649.349C732.596 649.349 675.157 649.772 617.742 645.944C524.776 639.746 432.189 636.306 339.086 632.969C287.364 631.115 235.89 633.903 184.482 639.778C159.008 642.69 133.353 645.959 108.376 651.926C100.951 653.7 81.8815 658.859 88.3141 662.969C101.88 671.636 127.631 671.809 142.978 669.779C149.171 668.96 158.853 667.615 163.592 662.877C170.271 656.198 160.207 643.931 156.414 638.674C144.085 621.587 127.913 609.561 108.008 602.508C80.5822 592.79 52.2371 587.194 25 576.464" stroke="#670606" stroke-opacity="0.2" stroke-width="10" stroke-linecap="round"/>
</g>
<defs>
<filter id="filter0_f_50_4" x="-0.00146484" y="-0.000488281" width="1394.22" height="695.846" filterUnits="userSpaceOnUse" color-interpolation-filters="sRGB">
<feFlood flood-opacity="0" result="BackgroundImageFix"/>
<feBlend mode="normal" in="SourceGraphic" in2="BackgroundImageFix" result="shape"/>
<feGaussianBlur stdDeviation="10" result="effect1_foregroundBlur_50_4"/>
</filter>
</defs>
</svg>
